<svg xmlns="http://www.w3.org/2000/svg" data-name="Layer 1" viewBox="0 0 1760 1920">
  <path fill="#353af1" d="M0 0v1760h1760l-2.5-1366.2L1364.2 0H0Z"/>
  <path fill="#fff" d="M396.2 1603.3c-208.1 3.7-208.1 313 0 316.7 208.1-3.7 208-313 0-316.7Zm0 263.9c-138.7-2.5-138.7-208.7 0-211.1 138.7 2.5 138.7 208.7 0 211.1Zm967.6-263.9c-208.1 3.7-208.1 313 0 316.7 208.1-3.7 208.1-313 0-316.7Zm0 263.9c-138.7-2.5-138.7-208.7 0-211.1 138.7 2.5 138.7 208.7 0 211.1Z"/>
  <path fill="#353af1" d="M1362.8 1634.9c-165.8 3-165.7 249.3 0 252.3 165.8-3 165.8-249.4 0-252.3Z"/>
  <path fill="#fff" d="M846.6 751.2c-10.8 60.3-40.1 104.5-87.8 132.4 104.8 65.7 72.8 229.3-18.2 291.1-92.3 81-426.5 37.7-545.1 47.9l118.9-675.4H652c122-3.2 216.6 84 194.6 204Zm-217.4 251.9c5.9-33.3-19.1-46.7-50.8-46.7H431.6l-16 96.1h145.6c40 0 62.7-16.4 68-49.4Zm-27.6-293.2H475.8l-16 93.7h124.4c39.2 0 61.6-15.2 66.9-45.5 6.3-32.1-10.2-48.2-49.5-48.2Zm939.9 41.3c-10.8 60.3-40.1 104.5-87.8 132.4 104.8 65.8 72.8 229.3-18.2 291.1-92.3 81-426.4 37.7-545 47.9l118.9-675.4H1347c122-3.2 216.6 84 194.5 204Zm-217.3 251.9c5.9-33.3-19.1-46.7-50.7-46.7h-146.9l-16 96.1h145.5c40 0 62.7-16.4 68.1-49.4Zm-27.6-293.2h-125.8l-16.1 93.7h124.5c39.2 0 61.5-15.2 66.9-45.5 6.2-32.1-10.3-48.2-49.5-48.2Z"/>
  <path fill="#353af1" d="M396.2 1635.5c-165.8 3-165.7 249.3 0 252.3 165.8-2.9 165.7-249.3 0-252.3Z"/>
</svg>
